HIERARCHY
ROOT root
{
	OFFSET	0	13.1	24.9
	CHANNELS 6  Xposition Yposition Zposition Xrotation Yrotation Zrotation
	JOINT spine_1
	{
		OFFSET	0	9.99999	0
		CHANNELS 3  Xrotation Yrotation Zrotation
		JOINT spine_2
		{
			OFFSET	0	112	-10
			CHANNELS 3  Xrotation Yrotation Zrotation
			JOINT spine_3
			{
				OFFSET	0	206.5	19.3
				CHANNELS 3  Xrotation Yrotation Zrotation
				JOINT spine_4
				{
					OFFSET	0	110.4	14.6
					CHANNELS 3  Xrotation Yrotation Zrotation
					JOINT neck_1
					{
						OFFSET	0	71.8	-50.3
						CHANNELS 3  Xrotation Yrotation Zrotation
						JOINT neck_2
						{
							OFFSET	0	86.2	-25.8
							CHANNELS 3  Xrotation Yrotation Zrotation
							JOINT head_ee
							{
								OFFSET	0	179.8	-8.7
								CHANNELS 3  Xrotation Yrotation Zrotation
								End Site
								{
									OFFSET	1	0	0
								}
							}
						}
					}
					JOINT left_clavicle
					{
						OFFSET	-43.2	22.4	-70.8
						CHANNELS 3  Xrotation Yrotation Zrotation
						JOINT left_shoulder
						{
							OFFSET	-93.9	-5.79999	48.7
							CHANNELS 3  Xrotation Yrotation Zrotation
							JOINT left_elbow
							{
								OFFSET	-291.4	-30.8	15.2
								CHANNELS 3  Xrotation Yrotation Zrotation
								JOINT left_lowarm_twist
								{
									OFFSET	-110.7	-3.89999	13.6
									CHANNELS 3  Xrotation Yrotation Zrotation
									JOINT left_hand
									{
										OFFSET	-110.7	-3.89999	13.6
										CHANNELS 3  Xrotation Yrotation Zrotation
										JOINT left_ee
										{
											OFFSET	-80.8	-5.10001	12.1
											CHANNELS 3  Xrotation Yrotation Zrotation
											End Site
											{
												OFFSET	1	0	0
											}
										}
									}
								}
							}
						}
					}
					JOINT right_clavicle
					{
						OFFSET	43.2	22.4	-70.8
						CHANNELS 3  Xrotation Yrotation Zrotation
						JOINT right_shoulder
						{
							OFFSET	93.9	-5.79999	48.7
							CHANNELS 3  Xrotation Yrotation Zrotation
							JOINT right_elbow
							{
								OFFSET	291.4	-30.8	15.2
								CHANNELS 3  Xrotation Yrotation Zrotation
								JOINT right_lowarm_twist
								{
									OFFSET	110.7	-3.89999	13.6
									CHANNELS 3  Xrotation Yrotation Zrotation
									JOINT right_hand
									{
										OFFSET	110.7	-3.89999	13.6
										CHANNELS 3  Xrotation Yrotation Zrotation
										JOINT right_ee
										{
											OFFSET	80.8	-5.10001	12.1
											CHANNELS 3  Xrotation Yrotation Zrotation
											End Site
											{
												OFFSET	1	0	0
											}
										}
									}
								}
							}
						}
					}
				}
			}
		}
	}
	JOINT left_hip
	{
		OFFSET	-82.8	-127.5	0.300001
		CHANNELS 3  Xrotation Yrotation Zrotation
		JOINT left_knee
		{
			OFFSET	-28.2	-396.7	2.2
			CHANNELS 3  Xrotation Yrotation Zrotation
			JOINT left_ankle
			{
				OFFSET	-11.7	-411.3	35.4
				CHANNELS 3  Xrotation Yrotation Zrotation
				JOINT left_toes
				{
					OFFSET	0	-60	-88.6
					CHANNELS 3  Xrotation Yrotation Zrotation
					JOINT left_foot_ee
					{
						OFFSET	-22.5	-16.5	-42.2
						CHANNELS 3  Xrotation Yrotation Zrotation
						End Site
						{
							OFFSET	1	0	0
						}
					}
				}
			}
		}
	}
	JOINT right_hip
	{
		OFFSET	82.8	-127.5	0.300001
		CHANNELS 3  Xrotation Yrotation Zrotation
		JOINT right_knee
		{
			OFFSET	28.2	-396.7	2.2
			CHANNELS 3  Xrotation Yrotation Zrotation
			JOINT right_ankle
			{
				OFFSET	11.7	-411.3	35.4
				CHANNELS 3  Xrotation Yrotation Zrotation
				JOINT right_toes
				{
					OFFSET	0	-60	-88.6
					CHANNELS 3  Xrotation Yrotation Zrotation
					JOINT right_foot_ee
					{
						OFFSET	22.5	-16.5	-42.2
						CHANNELS 3  Xrotation Yrotation Zrotation
						End Site
						{
							OFFSET	1	0	0
						}
					}
				}
			}
		}
	}
}
MOTION
Frames: 16
Frame Time: 0.02
391.555 721.904 -1204.45 -176.381931085 -29.4249089256 170.51723688 2.4946 0.607671 2.24366 2.49728 0.463707 2.27776 2.51541 0.0768251 2.32319 2.50815 0.442669 2.28194 -10.5218 5.08416 2.62905 -10.5266 7.8357 3.85902 -0.0 0.0 -0.0 5.852 6.14 11.377 16.5023 50.6828 58.158 0.282958 -7.9793 0.0197351 54.8342 -1.33621 -6.6115 -3.16541 -23.1584 -31.9405 -0.0 0.0 -0.0 14.1048 26.9255 -28.1303 -16.6352 -4.37588 -67.8617 0.459489 12.8232 -0.0516346 -18.5606 1.00969 -2.13743 -2.95426 25.5386 31.1953 0.0 0.0 0.0 -1.09401 4.47935 4.25532 -2.53631 0.0960887 0.377348 17.4189 27.9421 -2.5696 -6.80427 0.0 0.0 -0.0 0.0 -0.0 0.585787 16.1772 17.1795 0.797225 0.0336482 0.11771 39.7802 -2.61679 4.84286 -40.1117 0.0 0.0 0.0 0.0 0.0 
368.535169889 719.634 -1207.86785688 -175.612972952 -24.6219877373 174.751840558 1.41332 0.490081 2.30658 1.41622 0.342355 2.33307 1.43067 -0.0968106 2.35606 1.42303 0.276395 2.3418 -8.32453 8.75926 1.13521 -8.35709 15.5844 3.08378 -0.0 0.0 -0.0 4.38195 18.2926 8.81138 29.6952 53.1523 51.6486 0.409983 -11.4805 0.0412127 82.411 -4.1193 -8.73979 -2.80399 17.7217 -9.85766 -0.0 0.0 -0.0 13.0887 27.1344 -25.7434 -3.75824 -10.6581 -69.2057 0.444232 12.4109 -0.0483018 -26.6266 1.65373 -2.9445 -2.31121 17.4693 23.4387 0.0 0.0 0.0 7.64373 3.03875 3.96994 -10.0277 0.281222 1.51128 41.6943 25.9853 -5.36213 10.0409 -0.0 -0.0 -0.0 0.0 -0.0 6.74331 12.4861 10.119 -0.976753 -0.0389845 -0.144824 41.0514 -12.8305 4.99577 -35.3628 0.0 0.0 0.0 0.0 0.0 
402.608283399 712.804 -1241.57847542 -173.967601958 -30.4893476151 179.139761377 2.1176 0.265985 1.69047 2.11918 0.157893 1.70396 2.12379 -0.140678 1.70547 2.11976 0.130394 1.70628 -6.29957 5.19467 1.13354 -6.29236 8.78686 2.13774 -0.0 0.0 -0.0 4.49146 10.0651 8.95333 27.5547 55.3194 53.9026 0.317756 -8.94555 0.0248561 82.4133 -4.11956 -8.73991 -2.06099 11.5773 -8.32757 -0.0 0.0 -0.0 12.1202 27.0646 -23.5308 -0.743923 -17.3319 -67.4227 0.195589 5.5342 -0.00945333 -28.5185 1.82087 -3.12024 -0.817876 26.5219 16.6286 0.0 0.0 0.0 11.8161 4.6862 3.0436 -13.1035 0.314046 1.98202 42.2394 24.5004 -5.3608 12.3374 -0.0 -0.0 -0.0 0.0 -0.0 8.62714 11.582 9.53747 -3.23721 -0.119685 -0.482328 39.5428 -7.87024 4.82393 -39.6782 0.0 0.0 0.0 0.0 0.0 
403.3892209 712.804 -1241.33698926 -174.040192342 -29.2869501919 178.99409585 2.1176 0.265985 1.69047 2.11918 0.157893 1.70396 2.12379 -0.140678 1.70547 2.11976 0.130394 1.70628 -6.29957 5.19467 1.13354 -6.29236 8.78686 2.13774 -0.0 0.0 -0.0 4.49146 10.0651 8.95333 27.5547 55.3194 53.9026 0.317756 -8.94555 0.0248561 82.4133 -4.11956 -8.73991 -2.06099 11.5773 -8.32757 -0.0 0.0 -0.0 12.1202 27.0646 -23.5308 -0.743923 -17.3319 -67.4227 0.195589 5.5342 -0.00945333 -28.5185 1.82087 -3.12024 -0.817876 26.5219 16.6286 0.0 0.0 0.0 11.8161 4.6862 3.0436 -13.1035 0.314046 1.98202 42.2394 24.5004 -5.3608 12.3374 -0.0 -0.0 -0.0 0.0 -0.0 8.62714 11.582 9.53747 -3.23721 -0.119685 -0.482328 39.5428 -7.87024 4.82393 -39.6782 0.0 0.0 0.0 0.0 0.0 
403.58049017 712.804 -1241.27507769 -174.057379158 -28.9912093288 178.958799783 2.1176 0.265985 1.69047 2.11918 0.157893 1.70396 2.12379 -0.140678 1.70547 2.11976 0.130394 1.70628 -6.29957 5.19467 1.13354 -6.29236 8.78686 2.13774 -0.0 0.0 -0.0 4.49146 10.0651 8.95333 27.5547 55.3194 53.9026 0.317756 -8.94555 0.0248561 82.4133 -4.11956 -8.73991 -2.06099 11.5773 -8.32757 -0.0 0.0 -0.0 12.1202 27.0646 -23.5308 -0.743923 -17.3319 -67.4227 0.195589 5.5342 -0.00945333 -28.5185 1.82087 -3.12024 -0.817876 26.5219 16.6286 0.0 0.0 0.0 11.8161 4.6862 3.0436 -13.1035 0.314046 1.98202 42.2394 24.5004 -5.3608 12.3374 -0.0 -0.0 -0.0 0.0 -0.0 8.62714 11.582 9.53747 -3.23721 -0.119685 -0.482328 39.5428 -7.87024 4.82393 -39.6782 0.0 0.0 0.0 0.0 0.0 
402.77905718 712.804 -1241.5272073 -173.98381286 -30.2270883382 179.107686367 2.1176 0.265985 1.69047 2.11918 0.157893 1.70396 2.12379 -0.140678 1.70547 2.11976 0.130394 1.70628 -6.29957 5.19467 1.13354 -6.29236 8.78686 2.13774 -0.0 0.0 -0.0 4.49146 10.0651 8.95333 27.5547 55.3194 53.9026 0.317756 -8.94555 0.0248561 82.4133 -4.11956 -8.73991 -2.06099 11.5773 -8.32757 -0.0 0.0 -0.0 12.1202 27.0646 -23.5308 -0.743923 -17.3319 -67.4227 0.195589 5.5342 -0.00945333 -28.5185 1.82087 -3.12024 -0.817876 26.5219 16.6286 0.0 0.0 0.0 11.8161 4.6862 3.0436 -13.1035 0.314046 1.98202 42.2394 24.5004 -5.3608 12.3374 -0.0 -0.0 -0.0 0.0 -0.0 8.62714 11.582 9.53747 -3.23721 -0.119685 -0.482328 39.5428 -7.87024 4.82393 -39.6782 0.0 0.0 0.0 0.0 0.0 
402.41234066 712.804 -1241.63624631 -173.948764981 -30.7898077624 179.176722889 2.1176 0.265985 1.69047 2.11918 0.157893 1.70396 2.12379 -0.140678 1.70547 2.11976 0.130394 1.70628 -6.29957 5.19467 1.13354 -6.29236 8.78686 2.13774 -0.0 0.0 -0.0 4.49146 10.0651 8.95333 27.5547 55.3194 53.9026 0.317756 -8.94555 0.0248561 82.4133 -4.11956 -8.73991 -2.06099 11.5773 -8.32757 -0.0 0.0 -0.0 12.1202 27.0646 -23.5308 -0.743923 -17.3319 -67.4227 0.195589 5.5342 -0.00945333 -28.5185 1.82087 -3.12024 -0.817876 26.5219 16.6286 0.0 0.0 0.0 11.8161 4.6862 3.0436 -13.1035 0.314046 1.98202 42.2394 24.5004 -5.3608 12.3374 -0.0 -0.0 -0.0 0.0 -0.0 8.62714 11.582 9.53747 -3.23721 -0.119685 -0.482328 39.5428 -7.87024 4.82393 -39.6782 0.0 0.0 0.0 0.0 0.0 
401.55089695 712.804 -1241.87700636 -173.862870818 -32.1052849659 179.34134918 2.1176 0.265985 1.69047 2.11918 0.157893 1.70396 2.12379 -0.140678 1.70547 2.11976 0.130394 1.70628 -6.29957 5.19467 1.13354 -6.29236 8.78686 2.13774 -0.0 0.0 -0.0 4.49146 10.0651 8.95333 27.5547 55.3194 53.9026 0.317756 -8.94555 0.0248561 82.4133 -4.11956 -8.73991 -2.06099 11.5773 -8.32757 -0.0 0.0 -0.0 12.1202 27.0646 -23.5308 -0.743923 -17.3319 -67.4227 0.195589 5.5342 -0.00945333 -28.5185 1.82087 -3.12024 -0.817876 26.5219 16.6286 0.0 0.0 0.0 11.8161 4.6862 3.0436 -13.1035 0.314046 1.98202 42.2394 24.5004 -5.3608 12.3374 -0.0 -0.0 -0.0 0.0 -0.0 8.62714 11.582 9.53747 -3.23721 -0.119685 -0.482328 39.5428 -7.87024 4.82393 -39.6782 0.0 0.0 0.0 0.0 0.0 
427.984860065 707.943 -1250.0349846 -174.025987948 -34.3925316015 179.91667799 2.33362 -0.0606699 1.46442 2.3348 -0.153722 1.45759 2.33067 -0.399721 1.41013 2.32793 -0.172026 1.45555 -7.0021 3.54907 -1.23652 -6.995 7.48489 -0.518031 -0.0 0.0 -0.0 4.07995 11.5387 8.26871 21.8642 52.9211 60.1364 0.273662 -7.72037 0.0184654 80.8194 -3.93334 -8.65528 -1.19785 6.42909 -5.14011 -0.0 0.0 -0.0 10.0107 27.45 -18.7269 -2.62959 -18.9538 -69.42 0.193913 5.48707 -0.00929238 -29.4812 1.90813 -3.20753 -0.404464 28.5858 14.7084 0.0 0.0 0.0 12.1259 4.81427 3.78473 -16.9107 0.319625 2.56603 42.1162 20.649 -5.23587 16.4194 -0.0 -0.0 -0.0 0.0 -0.0 7.35858 13.0554 10.2262 -5.73294 -0.19323 -0.858254 40.988 -12.2134 4.98309 -37.7836 0.0 0.0 0.0 0.0 0.0 
428.128216598 707.943 -1249.92004896 -174.03878432 -34.213097128 179.893971969 2.33362 -0.0606699 1.46442 2.3348 -0.153722 1.45759 2.33067 -0.399721 1.41013 2.32793 -0.172026 1.45555 -7.0021 3.54907 -1.23652 -6.995 7.48489 -0.518031 -0.0 0.0 -0.0 4.07995 11.5387 8.26871 21.8642 52.9211 60.1364 0.273662 -7.72037 0.0184654 80.8194 -3.93334 -8.65528 -1.19785 6.42909 -5.14011 -0.0 0.0 -0.0 10.0107 27.45 -18.7269 -2.62959 -18.9538 -69.42 0.193913 5.48707 -0.00929238 -29.4812 1.90813 -3.20753 -0.404464 28.5858 14.7084 0.0 0.0 0.0 12.1259 4.81427 3.78473 -16.9107 0.319625 2.56603 42.1162 20.649 -5.23587 16.4194 -0.0 -0.0 -0.0 0.0 -0.0 7.35858 13.0554 10.2262 -5.73294 -0.19323 -0.858254 40.988 -12.2134 4.98309 -37.7836 0.0 0.0 0.0 0.0 0.0 
427.619410775 707.943 -1250.32465314 -173.992997775 -34.8479073644 179.974745101 2.33362 -0.0606699 1.46442 2.3348 -0.153722 1.45759 2.33067 -0.399721 1.41013 2.32793 -0.172026 1.45555 -7.0021 3.54907 -1.23652 -6.995 7.48489 -0.518031 -0.0 0.0 -0.0 4.07995 11.5387 8.26871 21.8642 52.9211 60.1364 0.273662 -7.72037 0.0184654 80.8194 -3.93334 -8.65528 -1.19785 6.42909 -5.14011 -0.0 0.0 -0.0 10.0107 27.45 -18.7269 -2.62959 -18.9538 -69.42 0.193913 5.48707 -0.00929238 -29.4812 1.90813 -3.20753 -0.404464 28.5858 14.7084 0.0 0.0 0.0 12.1259 4.81427 3.78473 -16.9107 0.319625 2.56603 42.1162 20.649 -5.23587 16.4194 -0.0 -0.0 -0.0 0.0 -0.0 7.35858 13.0554 10.2262 -5.73294 -0.19323 -0.858254 40.988 -12.2134 4.98309 -37.7836 0.0 0.0 0.0 0.0 0.0 
428.28317715 707.943 -1249.79497247 -174.052525552 -34.0186210167 179.869472072 2.33362 -0.0606699 1.46442 2.3348 -0.153722 1.45759 2.33067 -0.399721 1.41013 2.32793 -0.172026 1.45555 -7.0021 3.54907 -1.23652 -6.995 7.48489 -0.518031 -0.0 0.0 -0.0 4.07995 11.5387 8.26871 21.8642 52.9211 60.1364 0.273662 -7.72037 0.0184654 80.8194 -3.93334 -8.65528 -1.19785 6.42909 -5.14011 -0.0 0.0 -0.0 10.0107 27.45 -18.7269 -2.62959 -18.9538 -69.42 0.193913 5.48707 -0.00929238 -29.4812 1.90813 -3.20753 -0.404464 28.5858 14.7084 0.0 0.0 0.0 12.1259 4.81427 3.78473 -16.9107 0.319625 2.56603 42.1162 20.649 -5.23587 16.4194 -0.0 -0.0 -0.0 0.0 -0.0 7.35858 13.0554 10.2262 -5.73294 -0.19323 -0.858254 40.988 -12.2134 4.98309 -37.7836 0.0 0.0 0.0 0.0 0.0 
428.423719971 707.943 -1249.68077506 -174.064907073 -33.8417690388 179.847290247 2.33362 -0.0606699 1.46442 2.3348 -0.153722 1.45759 2.33067 -0.399721 1.41013 2.32793 -0.172026 1.45555 -7.0021 3.54907 -1.23652 -6.995 7.48489 -0.518031 -0.0 0.0 -0.0 4.07995 11.5387 8.26871 21.8642 52.9211 60.1364 0.273662 -7.72037 0.0184654 80.8194 -3.93334 -8.65528 -1.19785 6.42909 -5.14011 -0.0 0.0 -0.0 10.0107 27.45 -18.7269 -2.62959 -18.9538 -69.42 0.193913 5.48707 -0.00929238 -29.4812 1.90813 -3.20753 -0.404464 28.5858 14.7084 0.0 0.0 0.0 12.1259 4.81427 3.78473 -16.9107 0.319625 2.56603 42.1162 20.649 -5.23587 16.4194 -0.0 -0.0 -0.0 0.0 -0.0 7.35858 13.0554 10.2262 -5.73294 -0.19323 -0.858254 40.988 -12.2134 4.98309 -37.7836 0.0 0.0 0.0 0.0 0.0 
428.451546947 707.943 -1249.65807835 -174.067349449 -33.8066994786 179.842902591 2.33362 -0.0606699 1.46442 2.3348 -0.153722 1.45759 2.33067 -0.399721 1.41013 2.32793 -0.172026 1.45555 -7.0021 3.54907 -1.23652 -6.995 7.48489 -0.518031 -0.0 0.0 -0.0 4.07995 11.5387 8.26871 21.8642 52.9211 60.1364 0.273662 -7.72037 0.0184654 80.8194 -3.93334 -8.65528 -1.19785 6.42909 -5.14011 -0.0 0.0 -0.0 10.0107 27.45 -18.7269 -2.62959 -18.9538 -69.42 0.193913 5.48707 -0.00929238 -29.4812 1.90813 -3.20753 -0.404464 28.5858 14.7084 0.0 0.0 0.0 12.1259 4.81427 3.78473 -16.9107 0.319625 2.56603 42.1162 20.649 -5.23587 16.4194 -0.0 -0.0 -0.0 0.0 -0.0 7.35858 13.0554 10.2262 -5.73294 -0.19323 -0.858254 40.988 -12.2134 4.98309 -37.7836 0.0 0.0 0.0 0.0 0.0 
428.663003083 707.943 -1249.48467145 -174.085810976 -33.5396235259 179.809605951 2.33362 -0.0606699 1.46442 2.3348 -0.153722 1.45759 2.33067 -0.399721 1.41013 2.32793 -0.172026 1.45555 -7.0021 3.54907 -1.23652 -6.995 7.48489 -0.518031 -0.0 0.0 -0.0 4.07995 11.5387 8.26871 21.8642 52.9211 60.1364 0.273662 -7.72037 0.0184654 80.8194 -3.93334 -8.65528 -1.19785 6.42909 -5.14011 -0.0 0.0 -0.0 10.0107 27.45 -18.7269 -2.62959 -18.9538 -69.42 0.193913 5.48707 -0.00929238 -29.4812 1.90813 -3.20753 -0.404464 28.5858 14.7084 0.0 0.0 0.0 12.1259 4.81427 3.78473 -16.9107 0.319625 2.56603 42.1162 20.649 -5.23587 16.4194 -0.0 -0.0 -0.0 0.0 -0.0 7.35858 13.0554 10.2262 -5.73294 -0.19323 -0.858254 40.988 -12.2134 4.98309 -37.7836 0.0 0.0 0.0 0.0 0.0 
427.637703346 707.943 -1250.31026651 -173.994661797 -34.8251824563 179.971832087 2.33362 -0.0606699 1.46442 2.3348 -0.153722 1.45759 2.33067 -0.399721 1.41013 2.32793 -0.172026 1.45555 -7.0021 3.54907 -1.23652 -6.995 7.48489 -0.518031 -0.0 0.0 -0.0 4.07995 11.5387 8.26871 21.8642 52.9211 60.1364 0.273662 -7.72037 0.0184654 80.8194 -3.93334 -8.65528 -1.19785 6.42909 -5.14011 -0.0 0.0 -0.0 10.0107 27.45 -18.7269 -2.62959 -18.9538 -69.42 0.193913 5.48707 -0.00929238 -29.4812 1.90813 -3.20753 -0.404464 28.5858 14.7084 0.0 0.0 0.0 12.1259 4.81427 3.78473 -16.9107 0.319625 2.56603 42.1162 20.649 -5.23587 16.4194 -0.0 -0.0 -0.0 0.0 -0.0 7.35858 13.0554 10.2262 -5.73294 -0.19323 -0.858254 40.988 -12.2134 4.98309 -37.7836 0.0 0.0 0.0 0.0 0.0 
